<svg width="104" height="24" viewBox="0 0 104 24" fill="none" xmlns="http://www.w3.org/2000/svg">
<g clip-path="url(#clip0_180_428)">
<path d="M25.9521 18.8814V2.99207H35.4154V4.98416H27.9117V9.86954H34.6507V11.8616H27.9117V16.8419H35.9411V18.834H25.9521V18.8814Z" fill="#E43225"/>
<path d="M45.8822 18.8813L42.6322 14.66L39.3822 18.8813H37.0881L41.5329 13.2371L36.8491 7.40308H39.43L42.6322 11.7667L45.8822 7.40308H48.4153L43.9704 13.2371L48.1763 18.8813H45.8822Z" fill="#E43225"/>
<path d="M51.3307 17.1739V25H49.3711V13.2845C49.3711 10.2964 51.6652 7.11853 55.2498 7.11853C58.8821 7.11853 61.6064 9.39521 61.6064 13.1422C61.6064 16.7944 58.8343 19.3083 55.6799 19.3083C54.1505 19.3083 52.0954 18.6442 51.3307 17.1739ZM59.5512 13.1422C59.5512 10.581 57.8784 9.06319 54.9152 9.20548C53.4814 9.25291 51.2829 10.2964 51.474 13.9486C51.5218 15.1343 52.7645 17.3636 55.4887 17.3636C57.8306 17.3636 59.5512 16.0355 59.5512 13.1422Z" fill="#E43225"/>
<path d="M63.2793 18.8814V7.40317H65.2389V8.63637C66.1947 7.54546 67.6764 7.16602 69.2536 7.16602V9.25297C69.0146 9.20554 66.6727 8.92095 65.2389 11.9565V18.9289H63.2793V18.8814Z" fill="#E43225"/>
<path d="M69.7793 13.1422C69.7793 9.82209 72.169 7.11853 75.4668 7.11853C79.5771 7.11853 81.1065 9.82209 81.1065 13.2845V14.2332H71.93C72.0734 16.415 74.033 17.5533 75.8491 17.5059C77.1874 17.4584 78.0955 17.079 79.0514 16.1304L80.3418 17.4584C79.1469 18.5968 77.6175 19.3557 75.7536 19.3557C72.2646 19.3082 69.7793 16.747 69.7793 13.1422ZM75.3234 9.0632C73.4594 9.0632 72.0256 10.6758 71.93 12.4308H79.0514C79.0514 10.7233 77.8087 9.0632 75.3234 9.0632Z" fill="#E43225"/>
<path d="M82.1104 17.2688L83.5442 15.9882C83.4964 15.9882 84.2611 16.7471 84.3567 16.7945C84.6912 17.0791 85.0258 17.2688 85.4559 17.3637C86.6986 17.6957 88.9449 17.6008 89.1361 15.8933C89.2317 14.9447 88.5148 14.4229 87.7023 14.0909C86.6508 13.7115 85.5037 13.5692 84.4523 13.0949C83.2574 12.5731 82.4927 11.672 82.4927 10.3439C82.4927 6.88145 87.4633 6.31228 89.7096 7.92492C89.8052 8.01979 90.9045 9.01583 90.8567 9.01583L89.4228 10.1542C88.7059 9.30042 88.0368 8.87354 86.5074 8.87354C85.7427 8.87354 84.6912 9.20556 84.5001 10.0119C84.2133 11.1502 85.5037 11.5771 86.364 11.8142C87.5111 12.0988 88.7537 12.2886 89.7574 12.9052C91.1434 13.7589 91.478 15.6087 90.9523 17.0316C90.3787 18.5969 88.6581 19.2135 87.1287 19.2609C85.3126 19.3558 83.7354 18.7866 82.4449 17.5059C82.3493 17.5059 82.1104 17.2688 82.1104 17.2688Z" fill="#E43225"/>
<path d="M92.1948 17.2688L93.6286 15.9882C93.5809 15.9882 94.3456 16.7471 94.4411 16.7945C94.7757 17.0791 95.1103 17.2688 95.5404 17.3637C96.7831 17.6957 99.0294 17.6008 99.2206 15.8933C99.3161 14.9447 98.5992 14.4229 97.7867 14.0909C96.7353 13.7115 95.5882 13.5692 94.5367 13.0949C93.3419 12.5731 92.5772 11.672 92.5772 10.3439C92.5772 6.88145 97.5478 6.31228 99.7941 7.92492C99.8897 8.01979 100.989 9.01583 100.941 9.01583L99.5073 10.1542C98.7904 9.30042 98.1213 8.87354 96.5919 8.87354C95.8272 8.87354 94.7757 9.20556 94.5845 10.0119C94.2978 11.1502 95.5882 11.5771 96.4485 11.8142C97.5956 12.0988 98.8382 12.2886 99.8419 12.9052C101.228 13.7589 101.562 15.6087 101.037 17.0316C100.463 18.5969 98.7426 19.2135 97.2132 19.2609C95.397 19.3558 93.8198 18.7866 92.5294 17.5059C92.4338 17.5059 92.1948 17.2688 92.1948 17.2688Z" fill="#E43225"/>
<path d="M101.515 7.4031V6.16989H101.084V5.93274H102.232V6.16989H101.801V7.4031H101.515Z" fill="#E43225"/>
<path d="M103.666 7.4031V6.26475L103.235 7.4031H103.14L102.71 6.26475V7.4031H102.471V5.93274H102.853L103.235 6.92879L103.618 5.93274H104V7.4031H103.666Z" fill="#E43225"/>
<path d="M12.6654 18.8814L11.2316 15.0869H3.48897L2.05515 18.8814H0L6.21324 2.99207H8.45956L14.625 18.8814H12.6654ZM7.2647 5.26875L4.34927 13.1423H10.4191L7.2647 5.26875Z" fill="#F7971D"/>
<path d="M15.9155 18.8814V2.99207H17.9229V18.8814H15.9155Z" fill="#F7971D"/>
<path d="M20.9336 18.8814V7.64026H22.9409V18.8814H20.9336Z" fill="#F7971D"/>
<path d="M24.8527 3.98814C24.8527 3.94071 24.8527 3.94071 24.8527 3.89328C24.8527 3.84585 24.8527 3.84585 24.8527 3.79842C23.3233 3.75099 22.0807 2.51779 22.0329 1C21.9851 1 21.9373 1 21.8895 1C21.8417 1 21.7939 1 21.7461 1C21.6983 2.51779 20.4557 3.75099 18.9263 3.79842C18.9263 3.84585 18.9263 3.84585 18.9263 3.89328C18.9263 3.94071 18.9263 3.94071 18.9263 3.98814C20.4557 4.03557 21.6983 5.26877 21.7461 6.78656C21.7939 6.78656 21.8417 6.78656 21.8895 6.78656C21.9373 6.78656 21.9851 6.78656 22.0329 6.78656C22.0807 5.26877 23.3233 4.03557 24.8527 3.98814Z" fill="#F7971D"/>
</g>
<defs>
<clipPath id="clip0_180_428">
<rect width="104" height="24" fill="white"/>
</clipPath>
</defs>
</svg>
