<svg width="24" height="24" viewBox="0 0 24 24" fill="none" xmlns="http://www.w3.org/2000/svg">
<path d="M4.7999 3.59998C4.16338 3.59998 3.55293 3.85283 3.10285 4.30292C2.65276 4.75301 2.3999 5.36346 2.3999 5.99998C2.3999 6.6365 2.65276 7.24694 3.10285 7.69703C3.55293 8.14712 4.16338 8.39998 4.7999 8.39998H19.1999C19.8364 8.39998 20.4469 8.14712 20.897 7.69703C21.347 7.24694 21.5999 6.6365 21.5999 5.99998C21.5999 5.36346 21.347 4.75301 20.897 4.30292C20.4469 3.85283 19.8364 3.59998 19.1999 3.59998H4.7999Z" fill="#667385"/>
<path fill-rule="evenodd" clip-rule="evenodd" d="M3.6001 9.59998H20.4001V18C20.4001 18.6365 20.1472 19.2469 19.6972 19.697C19.2471 20.1471 18.6366 20.4 18.0001 20.4H6.0001C5.36358 20.4 4.75313 20.1471 4.30304 19.697C3.85295 19.2469 3.6001 18.6365 3.6001 18V9.59998ZM9.6001 13.2C9.6001 12.8817 9.72653 12.5765 9.95157 12.3514C10.1766 12.1264 10.4818 12 10.8001 12H13.2001C13.5184 12 13.8236 12.1264 14.0486 12.3514C14.2737 12.5765 14.4001 12.8817 14.4001 13.2C14.4001 13.5182 14.2737 13.8235 14.0486 14.0485C13.8236 14.2735 13.5184 14.4 13.2001 14.4H10.8001C10.4818 14.4 10.1766 14.2735 9.95157 14.0485C9.72653 13.8235 9.6001 13.5182 9.6001 13.2Z" fill="#667385"/>
</svg>
