<svg width="24" height="24" viewBox="0 0 24 24" fill="none" xmlns="http://www.w3.org/2000/svg">
<path fill-rule="evenodd" clip-rule="evenodd" d="M6.0001 3.59998C5.36358 3.59998 4.75313 3.85283 4.30304 4.30292C3.85295 4.75301 3.6001 5.36346 3.6001 5.99998V18C3.6001 18.6365 3.85295 19.2469 4.30304 19.697C4.75313 20.1471 5.36358 20.4 6.0001 20.4H18.0001C18.6366 20.4 19.2471 20.1471 19.6972 19.697C20.1472 19.2469 20.4001 18.6365 20.4001 18V5.99998C20.4001 5.36346 20.1472 4.75301 19.6972 4.30292C19.2471 3.85283 18.6366 3.59998 18.0001 3.59998H6.0001ZM16.8001 8.39998C16.8001 8.08172 16.6737 7.77649 16.4486 7.55145C16.2236 7.3264 15.9184 7.19998 15.6001 7.19998C15.2818 7.19998 14.9766 7.3264 14.7516 7.55145C14.5265 7.77649 14.4001 8.08172 14.4001 8.39998V15.6C14.4001 15.9182 14.5265 16.2235 14.7516 16.4485C14.9766 16.6735 15.2818 16.8 15.6001 16.8C15.9184 16.8 16.2236 16.6735 16.4486 16.4485C16.6737 16.2235 16.8001 15.9182 16.8001 15.6V8.39998ZM13.2001 10.8C13.2001 10.4817 13.0737 10.1765 12.8486 9.95145C12.6236 9.7264 12.3184 9.59998 12.0001 9.59998C11.6818 9.59998 11.3766 9.7264 11.1516 9.95145C10.9265 10.1765 10.8001 10.4817 10.8001 10.8V15.6C10.8001 15.9182 10.9265 16.2235 11.1516 16.4485C11.3766 16.6735 11.6818 16.8 12.0001 16.8C12.3184 16.8 12.6236 16.6735 12.8486 16.4485C13.0737 16.2235 13.2001 15.9182 13.2001 15.6V10.8ZM9.6001 14.4C9.6001 14.0817 9.47367 13.7765 9.24863 13.5514C9.02358 13.3264 8.71836 13.2 8.4001 13.2C8.08184 13.2 7.77661 13.3264 7.55157 13.5514C7.32653 13.7765 7.2001 14.0817 7.2001 14.4V15.6C7.2001 15.9182 7.32653 16.2235 7.55157 16.4485C7.77661 16.6735 8.08184 16.8 8.4001 16.8C8.71836 16.8 9.02358 16.6735 9.24863 16.4485C9.47367 16.2235 9.6001 15.9182 9.6001 15.6V14.4Z" fill="#667385"/>
</svg>
