<svg width="24" height="24" viewBox="0 0 24 24" fill="none" xmlns="http://www.w3.org/2000/svg">
<path d="M4.7998 4.80002C4.7998 4.1635 5.05266 3.55306 5.50275 3.10297C5.95284 2.65288 6.56328 2.40002 7.1998 2.40002H12.703C13.3395 2.40016 13.9498 2.65311 14.3998 3.10322L18.4966 7.20002C18.9467 7.65001 19.1997 8.26036 19.1998 8.89682V19.2C19.1998 19.8365 18.9469 20.447 18.4969 20.8971C18.0468 21.3472 17.4363 21.6 16.7998 21.6H14.9662C16.1924 20.2283 16.8469 18.4393 16.7954 16.6001C16.744 14.761 15.9904 13.0114 14.6894 11.7104C13.3885 10.4094 11.6388 9.65585 9.79968 9.60438C7.96056 9.55291 6.1715 10.2075 4.7998 11.4336V4.80002Z" fill="#076AFF"/>
<path fill-rule="evenodd" clip-rule="evenodd" d="M9.59985 12C8.75345 11.9999 7.92206 12.2236 7.18999 12.6484C6.45792 13.0732 5.8512 13.6841 5.43134 14.419C5.01149 15.1539 4.79343 15.9868 4.79928 16.8332C4.80513 17.6796 5.03468 18.5093 5.46465 19.2384L3.95145 20.7504C3.83996 20.8618 3.7515 20.9941 3.69114 21.1397C3.63077 21.2853 3.59967 21.4414 3.59961 21.599C3.59955 21.7566 3.63054 21.9127 3.69081 22.0583C3.75108 22.204 3.83944 22.3363 3.95085 22.4478C4.06227 22.5593 4.19455 22.6477 4.34015 22.7081C4.48575 22.7685 4.64181 22.7996 4.79943 22.7996C4.95705 22.7997 5.11313 22.7687 5.25877 22.7084C5.40442 22.6482 5.53676 22.5598 5.64825 22.4484L7.16145 20.9352C7.79727 21.3099 8.51093 21.533 9.24698 21.5871C9.98303 21.6412 10.7216 21.5248 11.4054 21.247C12.0891 20.9692 12.6996 20.5375 13.1894 19.9854C13.6792 19.4333 14.0351 18.7757 14.2294 18.0637C14.4237 17.3517 14.4512 16.6045 14.3097 15.8801C14.1683 15.1558 13.8617 14.4738 13.4139 13.8872C12.966 13.3006 12.3889 12.8252 11.7274 12.4978C11.0659 12.1705 10.3379 12.0002 9.59985 12ZM7.19985 16.8C7.19985 16.1635 7.45271 15.553 7.9028 15.1029C8.35288 14.6529 8.96333 14.4 9.59985 14.4C10.2364 14.4 10.8468 14.6529 11.2969 15.1029C11.747 15.553 11.9999 16.1635 11.9999 16.8C11.9999 17.4365 11.747 18.047 11.2969 18.4971C10.8468 18.9471 10.2364 19.2 9.59985 19.2C8.96333 19.2 8.35288 18.9471 7.9028 18.4971C7.45271 18.047 7.19985 17.4365 7.19985 16.8Z" fill="#076AFF"/>
</svg>
