<svg width="24" height="24" viewBox="0 0 24 24" fill="none" xmlns="http://www.w3.org/2000/svg">
<path fill-rule="evenodd" clip-rule="evenodd" d="M21 12C21 13.1819 20.7672 14.3522 20.3149 15.4442C19.8626 16.5361 19.1997 17.5282 18.364 18.364C17.5282 19.1997 16.5361 19.8626 15.4442 20.3149C14.3522 20.7672 13.1819 21 12 21C10.8181 21 9.64778 20.7672 8.55585 20.3149C7.46392 19.8626 6.47177 19.1997 5.63604 18.364C4.80031 17.5282 4.13738 16.5361 3.68508 15.4442C3.23279 14.3522 3 13.1819 3 12C3 9.61305 3.94821 7.32387 5.63604 5.63604C7.32387 3.94821 9.61305 3 12 3C14.3869 3 16.6761 3.94821 18.364 5.63604C20.0518 7.32387 21 9.61305 21 12ZM12.462 13.4162C12.462 13.5039 12.3909 13.575 12.3032 13.575H11.2946C11.0388 13.575 10.8314 13.3676 10.8314 13.1118C10.8314 12.1456 11.3858 11.6956 12.0598 11.3779L12.9294 11.1C13.4512 10.8485 13.7339 10.4912 13.7339 10.0412C13.7339 9.59118 13.4947 8.97265 12.2337 8.97265C10.9075 8.97265 10.3857 9.73676 10.3857 10.5838C10.3857 10.8689 10.1546 11.1 9.86952 11.1H9.13418C8.93682 11.1 8.77682 10.94 8.77682 10.7426C8.77682 9.02206 9.74432 7.5 12.2337 7.5C14.3753 7.5 15.2232 8.63824 15.2232 10.0412C15.2232 11.4176 14.4514 11.9735 13.7339 12.3176L12.9294 12.7015C12.5272 12.9 12.462 13.0853 12.462 13.4162ZM12.5925 15.5651C12.5925 16.0814 12.1739 16.5 11.6576 16.5C11.1412 16.5 10.7227 16.0814 10.7227 15.5651V15.2775C10.7227 14.7612 11.1412 14.3426 11.6576 14.3426C12.1739 14.3426 12.5925 14.7612 12.5925 15.2775V15.5651Z" fill="#667385"/>
</svg>
