<svg width="24" height="24" viewBox="0 0 24 24" fill="none" xmlns="http://www.w3.org/2000/svg">
<path fill-rule="evenodd" clip-rule="evenodd" d="M3.5999 3.59998C3.91816 3.59998 4.22339 3.7264 4.44843 3.95145C4.67347 4.17649 4.7999 4.48172 4.7999 4.79998V19.2C4.7999 19.5182 4.67347 19.8235 4.44843 20.0485C4.22339 20.2735 3.91816 20.4 3.5999 20.4C3.28164 20.4 2.97642 20.2735 2.75137 20.0485C2.52633 19.8235 2.3999 19.5182 2.3999 19.2V4.79998C2.3999 4.48172 2.52633 4.17649 2.75137 3.95145C2.97642 3.7264 3.28164 3.59998 3.5999 3.59998ZM12.8483 7.55158C13.0733 7.77661 13.1996 8.08178 13.1996 8.39998C13.1996 8.71817 13.0733 9.02334 12.8483 9.24837L11.2967 10.8H20.3999C20.7182 10.8 21.0234 10.9264 21.2484 11.1514C21.4735 11.3765 21.5999 11.6817 21.5999 12C21.5999 12.3182 21.4735 12.6235 21.2484 12.8485C21.0234 13.0735 20.7182 13.2 20.3999 13.2H11.2967L12.8483 14.7516C13.0669 14.9779 13.1878 15.281 13.1851 15.5957C13.1824 15.9103 13.0562 16.2113 12.8337 16.4338C12.6112 16.6562 12.3102 16.7824 11.9956 16.7852C11.6809 16.7879 11.3778 16.667 11.1515 16.4484L7.5515 12.8484C7.32654 12.6233 7.20016 12.3182 7.20016 12C7.20016 11.6818 7.32654 11.3766 7.5515 11.1516L11.1515 7.55158C11.3765 7.32661 11.6817 7.20023 11.9999 7.20023C12.3181 7.20023 12.6233 7.32661 12.8483 7.55158Z" fill="#667385"/>
</svg>
