<svg width="24" height="24" viewBox="0 0 24 24" fill="none" xmlns="http://www.w3.org/2000/svg">
<path fill-rule="evenodd" clip-rule="evenodd" d="M17.6461 3H6.35394C5.38116 3 4.50257 3.50609 4.12489 4.28463L2.19183 8.27179C1.68192 9.32276 2.23476 10.4832 3.30435 10.9599V19.2158H2.86957C2.38932 19.2158 2 19.6152 2 20.1079C2 20.6006 2.38932 21 2.86957 21H21.1304C21.6107 21 22 20.6006 22 20.1079C22 19.6152 21.6107 19.2158 21.1304 19.2158H20.6957V10.9595C21.7652 10.4824 22.3181 9.3221 21.8082 8.27179L19.8751 4.28463C19.4974 3.50609 18.6188 3 17.6461 3ZM18.9565 11.1071C17.8737 10.8557 17.0764 9.99829 17.0764 8.97905C17.0764 10.1958 15.9398 11.1818 14.538 11.1818C13.1362 11.1818 12 10.1178 12 8.97905C12 10.1958 10.8661 11.1818 9.46425 11.1818C8.06244 11.1818 6.92582 10.1178 6.92582 8.97905C6.92582 9.93536 6.12745 10.8362 5.04348 11.1026V19.2158H12.4348H13.25V13.3295C13.25 13.0854 13.3488 12.8513 13.5246 12.6787C13.7004 12.5061 13.9389 12.4091 14.1875 12.4091H16.6875C16.9361 12.4091 17.1746 12.5061 17.3504 12.6787C17.5262 12.8513 17.625 13.0854 17.625 13.3295V19.2158H18.7391H18.9565V11.1071ZM7.3125 12.4091H10.4375C10.6861 12.4091 10.9246 12.5061 11.1004 12.6787C11.2762 12.8513 11.375 13.0854 11.375 13.3295V15.8864C11.375 16.3382 11.0019 16.7045 10.5417 16.7045H7.20833C6.7481 16.7045 6.375 16.3382 6.375 15.8864V13.3295C6.375 13.0854 6.47377 12.8513 6.64959 12.6787C6.8254 12.5061 7.06386 12.4091 7.3125 12.4091Z" fill="#667385"/>
</svg>
